<svg width="1572" height="1800" viewBox="0 0 1572 1800" fill="none" xmlns="http://www.w3.org/2000/svg">
<g clip-path="url(#clip0_1181_16169)">
<g clip-path="url(#clip1_1181_16169)">
<path d="M45 152.483C45 166.495 45.0001 182.999 45 188.362C45 190.5 71.5 200.5 77 200.5M45 152.483C47.5 147 66 134 68.557 134C72.5 134 87.1113 140.406 99 144.51M45 152.483C57.9927 156.508 65 159 77.6174 164.081M77 200.5C83.3826 195.178 99 182.5 99 179.302C99 165.715 99 158.097 99 144.51M77 200.5C76.5 187 77 178.5 77.6174 164.081M99 144.51C90.3431 150.652 84.5 156 77.6174 164.081" stroke="#C70200" stroke-opacity="0.3"/>
<circle cx="53.6979" cy="162.993" r="2.39933" stroke="#C70200" stroke-opacity="0.3"/>
<circle cx="53.6979" cy="173.141" r="2.39933" stroke="#C70200" stroke-opacity="0.3"/>
<circle cx="53.6979" cy="183.289" r="2.39933" stroke="#C70200" stroke-opacity="0.3"/>
<circle cx="66.0202" cy="167.342" r="2.39933" stroke="#C70200" stroke-opacity="0.3"/>
<circle cx="92.1028" cy="160.015" r="2.39933" transform="rotate(34.641 92.1028 160.015)" stroke="#C70200" stroke-opacity="0.3"/>
<circle cx="66.0202" cy="177.49" r="2.39933" stroke="#C70200" stroke-opacity="0.3"/>
<circle cx="87.3777" cy="173.395" r="2.39933" transform="rotate(34.641 87.3777 173.395)" stroke="#C70200" stroke-opacity="0.3"/>
<circle cx="69.7644" cy="142.093" r="2.39933" transform="rotate(2.42783 69.7644 142.093)" stroke="#C70200" stroke-opacity="0.3"/>
<circle cx="66.0202" cy="187.638" r="2.39933" stroke="#C70200" stroke-opacity="0.3"/>
<circle cx="83.375" cy="186.834" r="2.39933" transform="rotate(34.641 83.375 186.834)" stroke="#C70200" stroke-opacity="0.3"/>
<circle cx="73.5417" cy="155.597" r="2.39933" transform="rotate(2.42783 73.5417 155.597)" stroke="#C70200" stroke-opacity="0.3"/>
<path d="M340.252 429.098C341.201 443.077 342.318 459.543 342.681 464.895C342.826 467.027 369.943 475.21 375.43 474.837M340.252 429.098C342.375 423.458 359.952 409.235 362.503 409.062C366.437 408.795 381.448 414.196 393.588 417.486M340.252 429.098C353.487 432.234 360.647 434.245 373.58 438.46M375.43 474.837C381.437 469.095 396.16 455.389 395.944 452.198C395.024 438.642 394.508 431.042 393.588 417.486M375.43 474.837C374.017 461.402 373.94 452.888 373.58 438.46M393.588 417.486C385.367 424.2 379.899 429.931 373.58 438.46" stroke="#C70200" stroke-opacity="0.3"/>
<circle cx="349.642" cy="438.995" r="2.39933" transform="rotate(-3.88309 349.642 438.995)" stroke="#C70200" stroke-opacity="0.3"/>
<circle cx="350.329" cy="449.119" r="2.39933" transform="rotate(-3.88309 350.329 449.119)" stroke="#C70200" stroke-opacity="0.3"/>
<circle cx="351.016" cy="459.243" r="2.39933" transform="rotate(-3.88309 351.016 459.243)" stroke="#C70200" stroke-opacity="0.3"/>
<!-- truncated for brevity in creation but full SVG content copied -->
</g>
</svg>
